<?xml version="1.0" standalone="no"?>
<!DOCTYPE svg PUBLIC "-//W3C//DTD SVG 20010904//EN"
 "http://www.w3.org/TR/2001/REC-SVG-20010904/DTD/svg10.dtd">
<svg version="1.0" xmlns="http://www.w3.org/2000/svg"
 width="590.000000pt" height="392.000000pt" viewBox="0 0 590.000000 392.000000"
 preserveAspectRatio="xMidYMid meet">
<metadata>
Created by potrace 1.15, written by Peter Selinger 2001-2017
</metadata>
<g transform="translate(0.000000,392.000000) scale(0.100000,-0.100000)"
fill="#000000" stroke="none">
<path d="M2904 2417 c-11 -6 -27 -21 -37 -33 -10 -13 -28 -26 -40 -30 -12 -4
-37 -20 -55 -35 -18 -16 -39 -29 -47 -29 -7 0 -20 -6 -27 -13 -7 -7 -31 -21
-53 -32 -29 -14 -35 -20 -22 -23 9 -2 15 -8 12 -13 -4 -5 -1 -9 4 -9 6 0 11
-4 11 -10 0 -5 -11 -10 -25 -10 -26 0 -36 -25 -13 -32 20 -7 -10 -88 -43 -117
-16 -14 -29 -30 -29 -36 0 -6 -9 -18 -20 -28 -12 -10 -20 -29 -20 -47 0 -17
-4 -29 -9 -25 -6 3 -6 17 -1 35 11 38 7 38 -33 -2 -17 -18 -36 -32 -41 -30 -5
2 -25 -12 -44 -30 -26 -25 -32 -28 -23 -11 10 19 9 22 -4 17 -8 -4 -15 -11
-15 -17 0 -6 -12 -23 -27 -39 -14 -15 -23 -31 -19 -35 4 -4 18 6 31 22 13 17
24 26 25 20 0 -5 18 9 40 30 22 21 40 36 40 33 0 -11 -77 -87 -82 -82 -3 2
-19 -11 -36 -31 -17 -19 -38 -35 -46 -35 -8 0 -17 -4 -20 -9 -3 -5 -15 -7 -26
-4 -19 5 -19 7 8 38 15 19 33 34 40 34 10 1 10 6 2 21 -13 24 -7 26 14 5 13
-14 16 -13 25 4 8 14 7 22 -4 31 -12 10 -22 5 -57 -24 -26 -23 -44 -32 -49
-25 -3 6 -8 -1 -11 -15 -7 -34 -1 -33 41 7 25 22 29 24 16 7 -32 -40 -60 -65
-98 -88 -29 -17 -37 -18 -37 -7 0 8 7 15 15 15 18 0 20 20 3 20 -17 1 -66 39
-50 40 6 0 12 9 12 20 0 21 -15 27 -25 10 -4 -6 -9 -8 -13 -6 -12 7 -39 -18
-46 -44 -6 -19 -5 -21 3 -10 14 20 14 -1 -1 -37 -6 -15 -10 -32 -9 -36 1 -5
-8 -6 -19 -2 -26 8 -25 -2 3 -26 25 -21 42 -25 31 -8 -5 9 3 10 29 5 20 -4 38
-2 41 3 4 6 -9 13 -29 17 -34 6 -42 14 -28 28 4 4 6 25 4 46 -1 22 1 40 6 40
14 0 44 -41 47 -64 1 -11 8 -31 15 -44 9 -18 10 -27 1 -37 -7 -8 -9 -18 -6
-23 3 -5 -3 -21 -14 -35 -17 -21 -18 -26 -5 -31 8 -3 15 -16 15 -30 0 -14 4
-27 9 -30 4 -3 11 -29 15 -58 3 -29 9 -64 12 -78 l7 -25 -24 24 c-16 17 -19
26 -11 29 9 3 6 10 -9 23 -20 17 -19 24 4 20 4 0 7 8 7 19 0 13 -7 20 -19 20
-16 0 -19 6 -16 29 3 25 1 28 -17 23 -17 -4 -19 -2 -13 16 9 30 -3 47 -21 31
-10 -8 -14 -8 -14 0 0 6 5 11 10 11 6 0 10 10 10 21 0 17 3 19 14 10 10 -9 16
-8 25 3 21 26 -25 30 -65 7 -29 -17 -38 -19 -54 -8 -11 6 -20 15 -20 19 0 12
24 10 37 -3 6 -6 17 -8 23 -4 8 5 2 14 -19 27 -29 19 -30 21 -14 34 15 11 16
16 5 34 -11 18 -9 22 13 32 14 6 25 19 25 28 0 10 10 30 22 46 13 17 15 23 6
16 -13 -10 -22 -11 -38 -2 -24 13 -44 8 -130 -32 -27 -13 -50 -27 -50 -32 0
-4 7 -3 15 4 10 9 15 9 15 1 0 -6 -4 -11 -8 -11 -4 0 -33 -22 -64 -50 -30 -27
-58 -47 -62 -45 -3 3 -4 2 -1 -2 3 -4 -36 -49 -87 -100 -51 -51 -87 -93 -79
-93 7 0 -6 -22 -28 -49 -39 -47 -49 -79 -35 -115 3 -9 15 -16 25 -16 23 0 25
15 4 24 -20 7 -19 41 3 62 9 10 18 22 18 28 1 6 2 16 3 23 0 7 8 10 16 7 12
-5 14 0 11 17 -3 19 9 36 53 78 31 29 79 74 106 100 69 66 93 79 143 79 47 -1
56 -12 16 -22 -25 -7 -26 -8 -8 -21 18 -14 18 -14 -3 -15 -12 0 -23 5 -25 12
-3 9 -6 9 -12 0 -4 -7 -2 -12 4 -12 6 0 9 -4 5 -10 -3 -5 -13 -6 -21 -3 -13 5
-15 1 -10 -15 4 -11 2 -23 -4 -27 -22 -13 -9 -23 21 -15 39 12 56 4 55 -23 -1
-17 -8 -23 -35 -25 -20 -2 -31 1 -27 6 3 6 15 8 26 5 11 -3 20 -1 20 5 0 16
-25 21 -66 12 -21 -5 -40 -7 -43 -5 -5 6 -31 -15 -31 -25 0 -4 16 -4 35 0 27
6 35 5 35 -6 0 -10 -7 -13 -24 -8 -20 5 -45 -10 -35 -21 4 -3 65 7 112 20 17
5 27 3 27 -4 0 -6 -10 -11 -22 -12 -20 -1 -19 -2 6 -9 49 -15 98 34 66 66 -6
6 -6 15 0 24 6 10 10 11 10 3 0 -7 7 -10 16 -6 14 5 15 3 7 -11 -5 -10 -8 -29
-5 -42 3 -19 9 -23 25 -18 16 5 19 3 14 -11 -4 -9 -7 -44 -7 -77 0 -52 -2 -59
-15 -48 -8 7 -22 10 -30 6 -20 -7 -33 23 -15 34 7 4 9 13 5 20 -11 17 -41 -15
-50 -53 -10 -45 -10 -116 -1 -154 6 -23 5 -33 -3 -33 -6 0 -11 12 -11 26 0 14
-4 23 -10 19 -5 -3 -10 -16 -10 -27 0 -32 -6 -18 -14 31 -6 37 -4 43 9 37 13
-5 15 -1 9 17 -3 12 -15 30 -25 40 -18 17 -19 17 -19 -15 0 -17 5 -58 12 -90
10 -47 10 -63 0 -79 -10 -15 -10 -24 -1 -42 8 -15 14 -18 17 -9 3 10 8 7 19
-7 19 -28 43 -27 43 3 0 27 36 77 53 73 8 -1 11 11 10 36 l-3 38 30 -21 29
-21 15 28 c9 16 15 21 16 12 0 -8 7 -24 15 -35 14 -18 15 -17 9 11 -10 46 -33
85 -49 85 -8 0 -15 5 -15 11 0 6 7 9 15 5 8 -3 15 -1 15 5 0 6 15 -18 33 -53
35 -68 57 -82 75 -46 7 16 11 18 11 7 1 -19 31 -48 31 -30 0 6 5 10 12 8 13
-2 38 39 38 66 0 9 3 17 6 17 4 0 13 -8 20 -17 9 -11 17 -14 21 -8 5 6 15 10
23 10 8 0 17 11 21 25 4 14 7 20 8 14 1 -7 8 -14 16 -18 13 -5 14 -2 4 17 -11
20 -11 21 5 8 15 -13 19 -13 27 0 5 8 9 20 9 28 0 7 6 11 15 7 8 -3 15 -1 15
4 0 6 7 10 15 10 11 0 15 11 15 36 0 31 2 35 15 24 8 -7 15 -8 15 -2 0 5 -7
15 -15 22 -9 7 -13 15 -11 18 3 2 12 -3 21 -12 27 -27 37 -19 33 24 -3 30 0
39 9 36 7 -3 13 -1 13 3 0 5 -6 11 -12 14 -10 3 -8 10 5 23 18 19 18 19 15 0
-2 -10 3 -21 10 -23 8 -3 12 6 12 25 0 18 6 32 16 36 12 4 15 15 12 36 -4 28
-4 29 14 13 10 -9 18 -12 18 -7 0 5 12 17 25 27 24 17 24 17 19 0 -13 -41 25
20 42 68 10 27 21 49 26 49 4 0 5 7 2 15 -8 20 9 19 51 -4 31 -16 33 -20 19
-32 -9 -7 -30 -13 -47 -13 -21 -1 -33 -6 -35 -17 -3 -18 37 -51 76 -63 12 -4
22 -12 22 -17 0 -6 -9 -7 -21 -4 -18 6 -21 4 -17 -13 5 -16 2 -19 -11 -15 -13
5 -13 3 3 -15 19 -22 46 -30 46 -14 0 4 -5 13 -12 20 -9 9 -8 12 5 12 9 0 17
-7 17 -15 0 -8 5 -24 12 -34 9 -15 9 -23 -1 -35 -12 -15 -15 -15 -26 0 -12 17
-40 11 -30 -7 4 -5 4 -13 0 -18 -3 -6 -21 6 -40 25 -30 29 -35 42 -35 79 0 47
-9 56 -31 29 -10 -13 -10 -17 1 -24 11 -7 2 -22 -41 -67 -31 -32 -58 -65 -62
-73 -5 -13 -7 -13 -16 0 -9 12 -11 10 -11 -12 0 -16 -9 -33 -22 -42 -20 -14
-21 -18 -8 -55 12 -37 7 -67 -9 -56 -5 2 -11 23 -15 45 -3 22 -11 40 -17 40
-11 0 -3 -63 13 -93 12 -23 -9 -54 -26 -37 -6 6 -11 21 -11 33 0 12 -4 22 -10
22 -15 0 -14 -38 1 -62 13 -21 10 -53 -6 -53 -15 0 -41 38 -31 45 13 7 15 25
3 25 -4 0 -13 -14 -21 -31 -12 -28 -12 -33 3 -41 17 -9 23 -58 7 -58 -5 0 -18
11 -28 25 -17 23 -20 24 -43 10 -26 -15 -45 -24 -70 -32 -11 -4 -9 -7 8 -14
12 -4 22 -12 23 -16 5 -52 14 -72 44 -100 44 -39 61 -35 102 24 33 47 34 68 2
78 -10 4 -19 13 -19 21 0 12 5 11 28 -3 35 -22 44 -35 32 -47 -18 -18 -10 -61
15 -85 28 -26 37 -73 10 -51 -8 7 -15 18 -15 25 0 7 -6 18 -14 24 -16 14 -26
-4 -26 -50 0 -30 41 -78 68 -79 6 0 12 -5 12 -11 0 -22 63 40 80 79 l19 41
-32 11 c-35 11 -107 66 -107 81 0 18 37 8 49 -13 6 -13 32 -32 56 -43 25 -11
45 -24 45 -29 0 -6 5 -5 11 1 15 15 65 -2 74 -24 9 -26 -8 -34 -39 -18 -38 20
-39 20 -60 -17 -12 -24 -13 -27 -2 -14 9 11 16 14 16 8 0 -7 11 -12 25 -12 14
0 30 -9 37 -20 8 -12 24 -20 41 -20 16 0 26 -4 22 -10 -11 -18 -50 -11 -86 16
l-34 25 -3 -25 c-5 -39 14 -64 56 -72 20 -4 43 -12 51 -17 10 -9 18 -6 32 12
11 13 19 32 19 43 0 10 9 28 20 40 17 18 20 19 25 6 4 -9 23 -19 43 -23 20 -4
44 -13 54 -21 12 -11 18 -12 23 -4 6 9 10 9 16 -1 5 -8 9 -17 9 -21 0 -13 -46
-9 -85 8 -44 18 -48 16 -32 -15 19 -38 60 -54 130 -51 28 1 55 -4 64 -12 13
-10 17 -10 20 0 3 6 9 12 14 12 4 0 6 -8 2 -18 -5 -14 -4 -14 9 2 10 12 22 17
36 14 13 -4 27 1 38 13 14 15 19 17 26 7 6 -10 8 -9 8 3 0 9 7 20 16 23 14 5
14 7 -1 22 -15 15 -14 27 3 73 4 11 -1 12 -24 7 -51 -12 -58 -11 -62 5 -4 22
57 32 78 14 11 -10 20 -11 33 -3 10 5 35 8 55 6 28 -4 41 0 55 16 l18 21 -6
-24 c-13 -43 -36 -62 -72 -55 -34 6 -42 -3 -21 -24 22 -22 84 -14 117 14 33
28 43 14 16 -22 -20 -27 -19 -34 9 -34 19 0 25 6 28 29 2 17 1 28 -4 25 -4 -3
-8 24 -8 59 0 48 4 66 15 71 10 4 14 -1 12 -17 -2 -19 3 -22 33 -22 50 -1 56
5 21 22 -17 9 -56 38 -87 65 l-57 49 -31 -28 c-17 -15 -33 -31 -36 -34 -3 -4
-29 -10 -58 -14 l-52 -7 2 34 c3 33 3 33 -39 31 -29 -2 -43 2 -47 13 -7 18 23
32 33 15 6 -9 14 -7 32 8 31 25 18 37 -26 24 -27 -9 -37 -8 -46 3 -15 18 -2
36 21 29 10 -3 21 -1 25 4 3 6 19 8 34 5 16 -4 32 -1 35 5 4 6 12 11 18 11 7
0 7 -4 0 -12 -11 -15 -21 -88 -11 -88 23 0 30 37 31 162 0 98 -5 146 -17 181
-15 44 -15 50 -1 66 15 17 21 121 7 121 -15 0 -30 62 -20 86 12 32 11 37 -1
29 -5 -3 -10 0 -10 9 0 8 -3 21 -6 29 -3 9 3 16 15 20 23 6 29 45 11 63 -8 8
-6 15 5 24 8 7 15 21 15 31 0 11 5 19 10 19 7 0 7 6 0 19 -5 11 -10 35 -10 53
0 23 -3 29 -9 19 -5 -8 -20 -15 -33 -16 -17 -2 -22 -8 -21 -24 2 -11 -2 -21
-8 -21 -5 0 -7 6 -3 13 5 8 2 8 -9 -2 -10 -8 -17 -28 -17 -50 0 -32 -29 -95
-30 -65 0 5 5 15 12 22 9 9 9 12 1 12 -15 0 -26 -35 -28 -83 -1 -36 -16 -57
-40 -57 -5 0 -3 5 5 10 8 5 10 10 4 10 -6 0 -9 12 -7 28 3 22 -2 30 -26 44
-20 11 -31 13 -34 5 -5 -16 -27 1 -27 22 0 10 -11 23 -25 29 -14 6 -25 15 -24
19 4 21 -3 33 -17 33 -14 0 -14 -3 -4 -15 9 -11 10 -19 3 -26 -8 -8 -13 -7
-17 0 -4 6 -13 11 -19 11 -7 0 -4 -7 6 -14 13 -10 17 -25 15 -53 -3 -39 -3
-40 -26 -25 -13 9 -21 21 -18 29 4 8 6 17 6 19 0 3 5 2 11 -2 7 -4 7 1 -1 16
-9 17 -14 20 -20 9 -5 -7 -6 -18 -3 -24 4 -5 3 -7 -2 -3 -4 4 -14 3 -21 -3 -8
-7 -14 -7 -19 1 -3 5 -1 10 6 10 7 0 2 11 -11 25 -21 22 -20 29 1 27 4 -1 -2
16 -13 36 -18 37 -18 37 2 40 14 2 20 11 20 28 0 13 -4 24 -9 24 -5 0 -8 -8
-7 -17 0 -10 -9 -19 -24 -23 -31 -8 -50 -2 -50 16 0 8 -7 14 -15 14 -16 0 -21
-25 -6 -35 6 -3 4 -16 -4 -32 -13 -24 -12 -28 8 -45 16 -14 23 -16 26 -7 2 7
12 21 21 32 15 16 18 16 23 3 4 -10 1 -16 -8 -16 -8 0 -15 -7 -15 -16 0 -8 5
-12 10 -9 7 4 9 -5 5 -26 -7 -38 -21 -59 -41 -59 -7 0 -11 -6 -8 -13 7 -18
-22 -41 -41 -33 -8 3 -15 14 -15 25 0 11 -4 23 -10 26 -15 9 -12 48 6 73 12
17 14 35 9 70 -4 34 -2 56 9 77 17 33 14 44 -9 25 -8 -7 -15 -8 -15 -3 0 5 8
16 19 24 17 15 19 14 36 -13 25 -43 41 -23 27 34 -13 52 -7 61 20 28 11 -14
17 -19 13 -12 -9 18 5 38 16 21 6 -10 9 -2 9 21 0 19 9 49 20 65 11 17 20 25
20 18 0 -6 -5 -15 -10 -18 -8 -5 -7 -11 1 -21 15 -18 29 -18 29 0 0 12 20 26
36 26 3 0 4 -15 2 -32 -2 -20 -8 -32 -15 -30 -18 3 -16 -33 2 -48 20 -16 66
-5 59 15 -4 8 6 25 23 39 l28 25 18 -20 c9 -12 17 -32 17 -45 0 -27 15 -32 24
-8 10 26 7 79 -5 91 -9 9 -8 18 4 37 16 23 16 26 -1 35 -13 8 -14 12 -4 19 10
7 10 11 -2 21 -8 7 -20 10 -26 6 -5 -3 -10 -2 -10 3 0 16 -75 31 -96 19z m10
-952 c15 -25 30 -45 34 -45 4 0 16 -17 26 -37 10 -21 23 -46 28 -57 15 -29 20
-66 8 -66 -5 0 -10 4 -10 9 0 16 -42 103 -47 97 -9 -8 29 -99 52 -126 36 -42
68 -91 62 -97 -4 -3 -13 2 -22 11 -9 9 -20 16 -24 16 -3 0 -15 14 -25 31 -14
24 -21 28 -28 18 -6 -10 -7 -7 -3 10 5 15 3 21 -3 17 -15 -9 -52 78 -45 104 4
14 1 20 -8 18 -9 -2 -16 12 -20 42 -4 25 -11 57 -14 73 -11 42 10 33 39 -18z
m-362 -143 c7 -18 23 -33 42 -40 42 -16 52 4 17 35 l-26 24 35 -3 c25 -2 40
-10 51 -28 18 -28 14 -50 -9 -50 -12 0 -13 -3 -4 -12 7 -7 12 -21 12 -31 0
-14 -5 -18 -20 -14 -11 3 -22 1 -25 -4 -6 -9 36 -55 48 -52 4 2 7 -2 7 -8 0
-6 8 -8 19 -4 11 3 22 1 26 -4 3 -6 18 -8 33 -5 34 6 57 -9 48 -31 -5 -13 -9
-15 -20 -6 -7 6 -33 13 -57 15 -50 5 -127 40 -135 61 -3 7 -11 11 -19 9 -7 -3
-22 6 -33 20 -11 14 -24 26 -28 26 -5 0 -16 11 -26 23 -15 22 -15 25 10 65 15
22 31 41 35 42 5 0 14 -13 19 -28z m-75 -114 c13 -12 23 -27 23 -35 0 -7 9
-13 19 -13 11 0 27 -10 36 -22 8 -13 19 -22 23 -20 4 1 24 -9 45 -22 21 -14
44 -23 51 -20 7 3 21 -2 29 -11 12 -11 26 -14 50 -10 25 5 38 2 51 -10 11 -11
29 -16 58 -14 26 2 43 -1 46 -9 2 -6 10 -12 18 -12 7 0 11 -6 8 -14 -7 -19
-78 -14 -102 7 -9 8 -44 18 -77 21 -54 6 -100 21 -145 48 -8 5 -23 11 -32 14
-10 4 -18 10 -18 15 0 5 -6 9 -12 9 -20 1 -120 98 -113 110 9 15 16 13 42 -12z"/>
<path d="M3180 2384 c0 -5 9 -15 20 -22 23 -14 27 -37 6 -29 -20 8 -30 -38
-14 -63 15 -24 28 -26 28 -4 0 8 5 12 10 9 6 -4 8 -10 6 -14 -3 -4 3 -19 12
-32 22 -32 42 -87 42 -121 0 -16 5 -28 10 -28 7 0 7 -6 0 -19 -5 -11 -10 -45
-10 -75 0 -34 -4 -56 -11 -56 -6 0 -9 -6 -6 -12 2 -7 9 -13 15 -13 6 0 17 -7
24 -17 8 -10 31 -18 61 -20 46 -3 47 -2 58 32 16 50 21 52 64 30 22 -11 45
-18 52 -16 7 3 15 1 18 -4 9 -14 45 12 45 32 0 19 25 25 35 9 6 -10 -24 -82
-39 -92 -4 -4 -5 -17 -1 -29 4 -12 11 -18 15 -14 20 21 71 125 65 134 -3 6 3
10 14 10 29 0 27 -39 -4 -102 -28 -55 -33 -90 -11 -82 15 6 66 94 66 116 0 8
9 24 20 36 24 26 24 26 3 48 -18 18 -19 21 -22 50 -2 28 -21 3 -21 -28 0 -26
-2 -29 -15 -18 -11 9 -12 15 -5 20 6 4 10 11 9 16 -4 23 3 34 21 34 11 0 20
-7 20 -15 0 -8 5 -15 10 -15 6 0 10 5 10 10 0 18 16 11 16 -7 1 -10 2 -38 4
-63 3 -47 -15 -100 -58 -179 -18 -33 -21 -46 -12 -55 9 -8 17 -4 36 19 13 17
24 36 24 43 0 7 7 23 15 35 12 19 18 58 24 156 1 7 7 11 16 7 24 -9 18 2 -24
44 -21 22 -33 41 -27 43 7 3 6 10 -4 22 -13 16 -13 18 0 13 8 -2 17 -18 20
-34 7 -40 46 -47 56 -9 3 14 9 23 12 20 8 -8 11 -145 3 -145 -9 0 -46 -101
-43 -117 2 -7 -2 -13 -7 -13 -17 0 -29 -62 -17 -82 6 -10 14 -18 17 -18 15 0
49 73 60 130 7 38 17 60 25 60 15 0 15 1 18 -52 2 -24 -2 -39 -11 -42 -7 -3
-13 -13 -13 -23 0 -10 -9 -38 -21 -62 -19 -43 -19 -44 -1 -27 19 16 20 16 26
-6 l6 -23 23 28 c25 29 47 117 47 184 0 27 5 43 15 46 22 9 29 -13 9 -28 -18
-13 -18 -14 -1 -20 16 -7 16 -9 2 -31 -19 -30 -19 -34 2 -34 15 0 15 -1 1 -12
-9 -7 -18 -31 -21 -53 -3 -22 -9 -50 -13 -62 -4 -14 -2 -23 5 -23 6 0 11 7 11
15 0 21 13 19 28 -5 20 -33 40 -24 57 28 l15 47 -6 -51 c-6 -59 12 -86 23 -34
5 26 8 29 15 16 10 -18 43 -21 53 -5 5 6 13 2 22 -11 l15 -21 15 20 c8 12 23
21 34 21 13 0 19 7 19 21 0 28 23 19 30 -12 6 -24 47 -52 62 -43 4 3 -4 22
-19 42 -20 27 -22 32 -7 19 12 -10 36 -22 54 -27 26 -7 31 -7 26 5 -4 11 2 15
19 15 22 0 23 -3 15 -24 -7 -20 -3 -29 30 -61 34 -33 40 -36 61 -25 20 11 25
9 42 -14 11 -15 37 -39 59 -52 32 -20 42 -23 54 -13 12 10 18 9 32 -5 16 -16
16 -17 0 -10 -10 3 -18 1 -18 -4 0 -6 9 -13 19 -17 11 -3 34 -23 52 -43 18
-20 42 -42 53 -49 14 -9 16 -12 6 -13 -13 0 -13 -1 0 -10 22 -14 29 -12 25 9
-3 15 1 18 18 13 12 -3 24 -8 27 -11 7 -9 113 -41 133 -41 10 0 17 -6 17 -12
0 -7 12 -1 25 15 29 32 47 34 86 6 36 -25 86 -23 81 4 -3 16 -1 16 18 5 18
-11 23 -10 35 6 13 17 18 17 45 6 17 -7 33 -10 37 -7 3 4 0 8 -8 11 -8 2 -34
11 -59 20 -25 8 -62 16 -83 18 -21 1 -43 8 -49 15 -5 7 -14 10 -19 7 -5 -2
-22 2 -39 11 -16 8 -30 13 -30 9 0 -3 -11 1 -25 10 -41 27 -40 18 1 -14 58
-45 66 -52 61 -57 -3 -2 -19 3 -36 12 -18 9 -36 13 -42 9 -6 -3 -19 2 -30 12
-11 10 -27 19 -35 20 -9 1 -19 6 -22 10 -4 4 1 4 11 1 20 -7 23 8 5 20 -9 5
-4 9 15 13 27 5 27 5 -31 55 -32 28 -72 69 -88 93 -16 24 -37 48 -46 53 -24
13 -23 46 3 54 19 6 20 8 3 26 -13 14 -20 16 -31 8 -7 -6 -13 -19 -13 -28 -1
-12 -5 -11 -20 8 -26 30 -25 41 1 41 19 0 20 2 8 16 -12 15 -15 14 -32 -7 -15
-19 -20 -20 -28 -8 -5 7 -9 20 -9 27 0 7 -6 12 -14 10 -7 -2 -23 8 -34 22
l-20 25 5 -28 c3 -15 11 -27 18 -27 24 0 34 -24 20 -44 -13 -17 -15 -16 -29
18 -10 23 -20 34 -29 31 -8 -4 -18 4 -25 20 -6 14 -16 25 -22 25 -6 0 -3 -12
7 -27 9 -16 13 -25 9 -21 -4 4 -19 3 -32 -3 -21 -7 -26 -5 -34 16 -5 14 -16
25 -23 25 -7 0 -22 7 -33 16 -18 15 -18 15 11 11 17 -3 39 -1 50 3 16 6 11 9
-23 15 -36 6 -46 4 -57 -11 -15 -21 -1 -48 21 -40 7 3 18 -1 24 -9 9 -11 7
-16 -9 -24 -32 -18 -16 -41 21 -30 42 11 54 1 28 -23 -23 -21 -24 -68 -2 -76
7 -2 10 2 6 12 -6 16 11 23 20 8 7 -12 -7 -30 -28 -34 -14 -2 -21 5 -28 28 -4
18 -33 69 -63 115 -30 46 -55 87 -55 91 0 4 -14 8 -31 8 -19 0 -28 -4 -24 -11
4 -6 13 -8 21 -5 30 11 11 -22 -23 -41 -20 -11 -22 -10 -28 17 -4 17 -13 30
-21 30 -8 0 -14 9 -14 20 0 11 -5 20 -11 20 -6 0 -9 -8 -7 -18 4 -15 1 -18
-18 -14 -16 3 -26 -1 -30 -12 -3 -9 -12 -16 -20 -16 -8 0 -14 -5 -14 -11 0 -6
-7 -9 -15 -5 -8 3 -19 -3 -25 -12 -7 -10 -9 -11 -6 -2 3 8 9 23 12 33 5 12 13
16 26 11 14 -4 18 -2 14 5 -4 6 -20 11 -37 11 -21 0 -29 -5 -29 -18 0 -20 -45
-50 -57 -39 -8 9 29 37 39 31 12 -8 9 29 -5 51 -7 11 -21 20 -32 20 -13 0 -25
10 -32 28 -18 40 -16 46 8 40 14 -4 19 -12 16 -24 -3 -12 0 -19 10 -19 8 0 12
4 8 9 -10 16 16 24 28 8 14 -17 57 -29 57 -16 0 6 9 5 20 -1 16 -8 26 -7 42 5
l22 15 -27 0 c-15 0 -27 4 -27 9 0 16 29 32 52 29 17 -2 23 2 23 17 0 12 8 22
20 25 21 6 35 50 16 50 -6 0 -11 -7 -11 -15 0 -8 -6 -15 -12 -15 -7 0 -23 -3
-35 -6 -13 -4 -23 -2 -23 4 0 5 9 12 20 15 11 3 20 10 20 17 0 7 -8 9 -20 5
-11 -3 -20 -2 -20 3 0 5 -7 9 -15 9 -8 0 -15 -4 -15 -9 0 -4 5 -8 12 -8 6 0 8
-3 4 -7 -4 -5 -14 1 -22 12 -14 19 -16 19 -28 3 -14 -20 -36 -24 -36 -8 0 6 7
10 16 10 24 0 11 24 -16 30 -13 3 -26 12 -28 19 -3 8 0 11 5 8 5 -3 15 2 23
13 9 12 18 16 29 10 26 -12 86 -30 104 -30 9 0 17 -4 17 -10 0 -5 9 -10 20
-10 11 0 20 -4 20 -10 0 -5 4 -10 10 -10 9 0 107 -42 180 -78 70 -34 110 -63
110 -79 0 -8 8 -22 18 -30 12 -10 14 -16 5 -19 -15 -7 -17 -44 -3 -44 6 0 10
9 10 20 0 15 7 20 26 20 23 0 25 2 14 15 -7 9 -18 14 -25 11 -6 -2 -17 5 -23
15 -7 10 -8 19 -3 19 11 0 240 -170 376 -279 50 -40 116 -86 147 -102 83 -42
85 -35 3 10 -38 22 -119 80 -180 130 -60 49 -157 126 -215 170 -58 45 -110 85
-117 91 -7 5 -17 10 -22 10 -5 0 -16 6 -23 13 -15 14 -231 121 -265 132 -13 3
-23 11 -23 16 0 5 -10 9 -23 9 -13 0 -27 4 -32 9 -10 9 -188 42 -221 40 -14 0
-12 -4 9 -13 15 -7 25 -15 21 -19 -4 -3 -15 -2 -26 4 -18 10 -19 8 -13 -11 5
-15 4 -20 -4 -16 -18 12 -12 -1 14 -30 24 -25 25 -44 4 -44 -6 0 -8 4 -5 8 3
5 -13 26 -34 47 -28 27 -40 34 -40 23 0 -9 8 -24 18 -34 9 -10 17 -21 17 -26
0 -5 5 -12 10 -16 6 -4 12 -22 14 -41 3 -31 1 -33 -23 -29 -20 4 -26 1 -26
-13 0 -27 -15 -31 -35 -9 -10 11 -25 20 -34 20 -13 1 -12 3 3 12 15 8 21 7 28
-6 11 -20 32 -21 25 -2 -3 8 -1 17 6 20 9 3 8 5 -1 5 -7 1 -10 6 -7 11 4 6 14
1 25 -12 19 -23 39 -20 24 4 -5 7 -9 15 -10 18 -6 30 -29 61 -55 74 -38 19
-47 20 -31 4 17 -17 15 -28 -4 -21 -8 3 -20 17 -26 32 l-11 26 -7 -30 -7 -30
-10 25 c-10 23 -12 23 -19 6 -7 -18 -8 -18 -21 0 -12 17 -13 17 -13 0 0 -9 -4
-15 -9 -11 -5 3 -13 1 -16 -5 -5 -8 -12 -7 -23 2 -13 11 -15 10 -9 -4 8 -22
-6 -24 -22 -4 -8 10 -20 12 -39 7 -15 -4 -34 -6 -42 -4 -8 2 -4 -3 10 -11 24
-15 24 -15 -21 -10 -30 4 -49 2 -54 -5 -5 -9 -10 -9 -21 0 -11 9 -17 9 -29 -1
-12 -10 -17 -6 -31 22 -16 35 -54 68 -54 47 0 -5 -4 -8 -9 -5 -5 4 -7 -3 -4
-14 3 -11 1 -20 -4 -20 -6 0 -8 -11 -6 -24 3 -13 0 -27 -6 -30 -10 -6 -16 20
-12 47 0 4 -6 7 -14 7 -14 0 -19 12 -16 33 0 4 -6 7 -15 7 -8 0 -13 4 -9 9 3
6 -1 13 -9 18 -20 11 -9 63 13 63 9 0 33 -8 53 -19 21 -10 39 -14 40 -9 2 5
25 -14 53 -42 33 -33 44 -50 33 -50 -9 0 -20 -4 -23 -10 -6 -10 100 -8 111 2
3 4 -11 30 -30 58 -35 50 -47 60 -26 19 8 -14 7 -19 -2 -19 -9 0 -9 -3 0 -12
16 -16 15 -28 -1 -28 -16 0 -82 79 -73 87 3 4 14 -1 23 -9 32 -27 48 -31 23
-5 -16 16 -41 27 -69 31 -25 3 -48 11 -52 17 -4 8 -29 10 -69 7 -53 -4 -63 -2
-71 15 -6 10 -8 25 -5 34 5 11 2 13 -11 8 -39 -16 -54 -17 -68 -5 -8 7 -15 8
-15 4z"/>
<path d="M3920 1614 c-14 -8 -39 -14 -57 -14 -17 0 -43 -4 -57 -10 -21 -8 -29
-5 -47 13 -20 22 -21 22 -35 3 -8 -11 -14 -25 -14 -32 0 -7 -6 -14 -12 -17 -7
-3 4 -12 26 -21 32 -15 37 -21 33 -42 -4 -23 -2 -25 26 -18 28 6 29 5 23 -20
-5 -21 -3 -26 13 -26 26 0 81 47 81 70 0 21 -36 50 -61 50 -9 0 -22 7 -29 15
-16 19 -11 19 36 -1 20 -9 46 -27 57 -40 11 -14 22 -23 25 -20 2 3 -1 12 -8
21 -11 13 -10 14 4 9 15 -6 17 -1 14 27 -2 21 3 38 11 45 21 17 -1 23 -29 8z"/>
<path d="M3545 1504 c11 -8 26 -19 34 -23 15 -9 3 -39 -30 -72 -10 -10 -19
-28 -19 -39 l0 -21 22 21 c12 11 25 20 30 20 4 0 8 8 8 18 0 9 7 25 14 35 11
14 15 15 25 3 14 -16 6 -40 -27 -83 -30 -41 -21 -59 19 -36 18 11 27 23 24 32
-6 15 20 61 33 61 17 0 -2 -67 -29 -104 -35 -48 -29 -61 18 -41 19 8 37 15 40
15 2 0 3 10 2 23 -4 40 1 55 17 59 13 2 10 10 -13 40 -15 21 -36 37 -45 38 -9
0 -20 5 -23 10 -4 6 -22 17 -41 25 -19 8 -34 19 -34 24 0 6 -10 11 -22 11 -23
-1 -23 -1 -3 -16z"/>
<path d="M1605 1268 c-2 -7 -13 -53 -24 -103 -10 -49 -26 -122 -35 -161 -9
-40 -16 -87 -16 -105 l1 -34 21 25 21 25 -6 -24 -6 -23 26 23 c40 38 48 58 27
74 -17 12 -17 17 -5 65 13 49 10 65 -10 65 -5 0 -9 3 -9 8 0 4 0 12 0 17 0 6
9 10 20 10 25 0 26 25 3 39 -17 10 -17 12 0 25 14 11 16 19 9 32 -5 9 -7 25
-5 35 6 21 -5 26 -12 7z"/>
<path d="M3516 1251 c-11 -16 -32 -36 -48 -46 -34 -20 -36 -35 -5 -35 13 0 33
14 50 35 29 36 47 38 47 5 0 -17 -48 -61 -106 -96 -15 -10 -16 -15 -7 -25 10
-10 16 -9 31 4 10 9 31 17 45 17 20 0 27 5 27 20 0 19 32 45 43 34 8 -9 -23
-63 -46 -79 -12 -8 -32 -15 -44 -15 -29 0 -30 -16 -2 -31 15 -8 24 -8 32 0 6
6 19 11 29 11 19 0 68 38 68 52 0 5 -12 35 -27 66 -15 31 -30 68 -33 82 -7 35
-32 35 -54 1z"/>
<path d="M1669 1158 c-16 -130 -14 -182 6 -174 8 3 15 0 17 -6 3 -7 17 5 32
25 27 35 28 39 12 56 -9 9 -16 29 -16 42 0 14 -6 31 -12 38 -11 10 -10 11 5 6
13 -5 17 -2 17 13 0 12 -4 23 -10 27 -10 6 -2 36 14 47 13 9 -12 38 -33 38
-15 0 -20 -19 -32 -112z"/>
<path d="M1487 1119 c-2 -8 -9 -30 -16 -50 -6 -19 -11 -45 -11 -58 0 -32 -28
-168 -47 -226 -9 -27 -27 -61 -40 -75 l-24 -25 10 25 c19 49 71 228 71 244 0
9 -7 16 -15 16 -8 0 -15 5 -15 11 0 6 9 8 20 4 16 -5 20 -2 20 19 0 16 -6 26
-15 26 -8 0 -15 5 -15 11 0 6 7 9 14 6 24 -9 31 32 9 48 -16 12 -19 10 -31
-23 -8 -20 -20 -77 -28 -127 -9 -49 -26 -123 -39 -163 -13 -40 -22 -79 -20
-85 6 -16 -51 -84 -62 -73 -4 5 -2 11 5 13 7 3 20 19 28 35 16 30 15 31 -5 25
-36 -9 -34 11 8 100 23 47 41 96 41 109 0 13 5 24 10 24 19 0 11 47 -9 53 -15
4 -24 -10 -51 -80 -52 -138 -100 -233 -119 -233 -20 -1 -51 -24 -51 -39 0 -6
-8 -11 -19 -11 -10 0 -25 -8 -32 -17 -11 -15 -11 -16 1 -5 20 17 30 15 23 -5
-6 -15 -4 -16 9 -5 11 9 18 10 23 2 3 -5 -1 -10 -11 -10 -12 0 -15 -6 -12 -25
3 -14 2 -25 -2 -25 -4 0 -7 -6 -7 -14 0 -12 31 -16 55 -7 2 0 -4 8 -12 17 -9
8 -16 23 -15 32 0 15 1 15 7 -1 13 -31 52 -44 97 -33 22 6 40 16 40 21 0 6 4
25 9 43 7 29 11 33 31 28 18 -5 28 2 49 34 14 22 29 40 32 40 4 0 -1 -11 -10
-25 -19 -29 -20 -39 -4 -29 7 4 8 3 4 -5 -4 -6 -12 -9 -17 -6 -5 3 -6 0 -3 -8
3 -8 -2 -20 -11 -27 -8 -7 -15 -21 -15 -32 0 -16 7 -12 40 21 22 22 40 46 40
53 0 7 19 29 42 48 23 19 49 43 57 53 9 9 21 17 28 17 7 0 13 3 13 8 0 19 101
115 122 117 13 1 23 6 23 11 0 5 4 15 8 22 12 18 -3 15 -26 -5 -19 -17 -20
-17 -14 0 10 28 -6 20 -48 -23 -28 -29 -44 -38 -60 -34 -18 4 -25 -2 -41 -38
-10 -23 -17 -43 -14 -43 13 -3 -67 -62 -83 -62 -16 0 -16 2 -1 18 9 10 20 16
25 14 9 -6 61 66 53 74 -3 3 -10 -1 -15 -9 -12 -17 -11 -10 22 110 34 122 34
119 8 129 l-24 9 28 11 c32 12 35 31 7 56 -16 14 -20 15 -23 4z"/>
<path d="M1204 1003 c1 -26 -3 -38 -13 -38 -8 0 -17 -7 -20 -15 -16 -40 -169
-200 -192 -200 -19 0 -71 -39 -52 -40 6 0 14 6 16 13 4 9 6 9 6 0 1 -7 -9 -17
-20 -24 -15 -8 -19 -8 -15 0 4 6 2 11 -4 11 -6 0 -8 5 -5 10 9 14 -5 12 -35
-5 -37 -21 -49 -18 -20 5 20 16 13 15 -35 -6 -65 -29 -81 -40 -50 -32 20 4 59
-25 48 -36 -10 -10 -23 -7 -21 5 2 6 -4 14 -12 16 -9 3 -11 1 -5 -4 13 -11 19
-47 6 -39 -5 4 -12 2 -16 -4 -4 -6 -11 -8 -16 -5 -5 4 -9 2 -9 -4 0 -15 14
-21 38 -14 12 3 22 11 22 19 0 7 9 18 19 24 30 15 36 12 17 -9 -15 -16 -15
-19 -1 -31 9 -7 18 -10 22 -6 3 3 1 6 -6 6 -7 0 -9 5 -6 10 3 6 11 10 16 10 6
0 8 -4 5 -8 -2 -4 -1 -14 3 -21 7 -11 13 -9 28 6 11 11 28 23 39 26 15 6 14 3
-5 -14 -21 -17 -22 -22 -10 -30 7 -5 10 -9 5 -9 -5 0 -3 -6 3 -14 6 -7 9 -21
5 -30 -11 -29 42 -19 81 15 32 28 49 59 25 44 -6 -4 24 43 67 104 97 137 163
244 163 264 0 16 -26 30 -41 21 -5 -3 -9 -14 -9 -25 0 -11 5 -17 10 -14 6 3
10 -1 10 -10 0 -12 -6 -15 -19 -10 -14 4 -21 0 -26 -14 -3 -12 -3 -25 0 -31 3
-5 -1 -10 -9 -10 -8 0 -21 -10 -27 -22 -6 -13 -23 -36 -38 -52 l-26 -30 38 22
c23 13 35 16 30 8 -14 -23 -83 -96 -91 -96 -14 0 -53 -46 -45 -54 4 -4 0 -4
-10 0 -15 5 -13 12 18 50 l36 44 -28 -2 c-35 -2 -74 -35 -66 -56 4 -10 2 -13
-6 -8 -7 5 -20 1 -29 -6 -59 -51 -24 -11 96 109 76 76 150 159 166 186 24 43
26 49 13 68 -14 19 -15 18 -13 -18z"/>
</g>
</svg>
