<?xml version="1.0" standalone="no"?>
<!DOCTYPE svg PUBLIC "-//W3C//DTD SVG 20010904//EN"
 "http://www.w3.org/TR/2001/REC-SVG-20010904/DTD/svg10.dtd">
<svg version="1.0" xmlns="http://www.w3.org/2000/svg"
 width="590.000000pt" height="392.000000pt" viewBox="0 0 590.000000 392.000000"
 preserveAspectRatio="xMidYMid meet">
<metadata>
Created by potrace 1.15, written by Peter Selinger 2001-2017
</metadata>
<g transform="translate(0.000000,392.000000) scale(0.100000,-0.100000)"
fill="#000000" stroke="none">
<path d="M5192 3558 c1 -104 -16 -157 -67 -212 -14 -15 -25 -30 -25 -34 0 -4
-16 -20 -36 -37 -20 -16 -52 -46 -73 -66 -50 -48 -233 -168 -298 -194 -28 -12
-58 -26 -65 -31 -18 -15 -105 -54 -118 -54 -6 0 -40 -13 -75 -30 -78 -36 -80
-36 -59 -6 9 15 21 22 30 19 8 -3 14 1 14 9 0 8 12 20 27 27 25 11 26 14 10
23 -13 7 -22 6 -33 -2 -11 -10 -14 -10 -14 1 0 11 -2 11 -11 -1 -8 -12 -9 -10
-7 9 2 14 10 25 21 27 26 4 33 12 20 25 -16 16 -51 -6 -59 -36 -3 -13 -13 -30
-22 -37 -13 -11 -15 -10 -9 5 6 15 4 16 -13 7 -11 -6 -19 -14 -19 -18 4 -21
-3 -30 -19 -25 -10 2 -24 -3 -32 -12 -11 -13 -10 -15 5 -9 13 5 16 3 13 -7 -3
-8 -11 -13 -17 -12 -6 2 -11 -5 -12 -15 0 -11 -2 -12 -6 -4 -3 9 -22 -1 -56
-31 -59 -49 -91 -61 -121 -45 -26 15 -55 17 -62 6 -3 -4 4 -8 15 -8 11 0 23
-5 26 -10 4 -6 11 -8 16 -5 5 4 9 2 9 -4 0 -12 -42 -42 -49 -35 -3 3 1 9 9 14
27 17 2 22 -29 6 -37 -20 -47 -20 -32 -2 18 22 -25 33 -48 12 -19 -18 -46 -22
-36 -6 13 21 -9 9 -49 -27 -43 -39 -87 -92 -53 -64 19 15 23 1 5 -17 -10 -10
-10 -15 2 -22 8 -5 17 -5 20 0 3 5 12 5 19 1 16 -10 154 25 159 40 2 5 8 9 13
9 6 0 22 8 37 18 247 167 279 186 287 172 9 -14 -3 -30 -23 -31 -9 0 -51 -22
-92 -48 -58 -37 -76 -54 -78 -74 -3 -21 0 -26 12 -21 12 5 15 2 9 -12 -4 -11
-3 -15 4 -11 12 8 66 -17 57 -25 -3 -3 -22 -2 -42 3 -20 5 -46 8 -57 8 -19 0
-19 0 -2 -14 18 -13 17 -14 -7 -27 -14 -7 -24 -17 -24 -23 1 -5 -6 -11 -15
-13 -9 -2 -17 1 -17 7 0 6 -7 11 -15 11 -14 0 -13 -3 1 -25 9 -14 12 -25 6
-25 -6 0 -14 5 -17 10 -10 16 -28 11 -21 -6 4 -12 1 -14 -14 -9 -16 5 -19 3
-13 -11 4 -12 3 -15 -5 -10 -7 4 -12 1 -12 -9 0 -11 -5 -15 -15 -11 -9 3 -15
0 -15 -9 0 -8 -5 -15 -11 -15 -6 0 -24 -11 -41 -25 -20 -17 -33 -22 -41 -15
-7 6 -28 24 -47 40 -35 29 -57 39 -45 20 8 -13 -18 -13 -31 0 -8 8 -20 7 -39
0 -16 -6 -41 -8 -56 -5 -15 4 -43 -1 -64 -10 -21 -8 -40 -13 -43 -10 -3 3 0 5
6 5 7 0 12 5 12 10 0 6 -8 10 -17 8 -27 -5 -26 24 3 55 14 16 24 31 21 33 -3
3 -20 -15 -38 -40 -31 -44 -33 -45 -55 -31 -37 24 -41 17 -9 -12 24 -23 26
-28 12 -31 -9 -2 -17 -9 -17 -15 0 -7 -3 -23 -7 -36 -4 -16 -2 -22 4 -18 6 4
14 0 17 -9 5 -13 9 -14 21 -4 12 10 15 10 15 -3 0 -8 7 -21 16 -28 20 -17 35
-52 44 -106 5 -34 4 -43 -9 -46 -13 -4 -13 -5 2 -6 13 -1 17 -9 16 -38 -1 -42
-16 -101 -18 -70 -1 10 -7 25 -15 33 -8 8 -13 25 -10 40 7 36 -5 49 -23 24 -8
-12 -21 -19 -29 -16 -8 3 -19 -4 -25 -15 -6 -12 -17 -18 -26 -15 -25 10 -34
-4 -17 -30 10 -15 12 -24 5 -24 -6 0 -11 8 -11 18 -1 15 -2 15 -15 -2 -20 -27
-19 -47 1 -39 15 5 15 3 -1 -20 -9 -15 -18 -43 -18 -63 -1 -21 -7 -39 -14 -41
-16 -6 -27 35 -14 51 6 7 8 16 4 19 -3 4 0 7 8 7 9 1 8 4 -5 12 -15 8 -22 7
-31 -6 -15 -20 -29 -21 -22 -2 3 8 -1 17 -9 20 -9 4 -14 -1 -14 -14 0 -11 -4
-20 -10 -20 -5 0 -10 9 -10 20 0 12 -10 25 -25 32 -14 6 -24 17 -21 24 3 7 -1
17 -7 21 -16 13 -57 14 -57 2 0 -5 7 -9 15 -9 8 0 15 -7 15 -16 0 -13 -3 -14
-13 -5 -10 8 -19 6 -35 -10 -28 -26 -67 -10 -56 23 3 11 2 23 -4 27 -17 10
-19 56 -2 56 18 0 26 33 11 48 -9 9 -13 6 -17 -10 -10 -36 -74 -42 -74 -7 0 8
-7 14 -16 14 -9 0 -14 -8 -13 -17 1 -10 0 -29 -1 -43 -2 -21 -4 -19 -12 12 -7
28 -6 45 4 68 15 35 28 38 35 10 6 -22 22 -27 24 -7 1 6 0 28 0 47 -1 33 -1
34 13 16 14 -18 15 -17 22 9 5 20 9 23 15 13 7 -10 9 -9 9 5 0 9 4 17 9 17 4
0 6 11 3 25 -2 15 0 25 7 25 6 0 11 -4 11 -8 0 -5 7 -9 15 -9 8 0 15 6 15 13
0 10 21 24 36 24 12 0 2 -51 -11 -56 -19 -8 -19 -38 0 -54 20 -17 66 -5 59 15
-4 8 -1 15 4 15 6 0 14 9 17 20 10 32 40 24 55 -15 14 -36 25 -44 33 -22 6 16
-4 79 -14 93 -5 6 -1 20 8 34 15 21 15 24 -2 36 -10 8 -13 14 -7 14 18 0 14
20 -5 26 -10 3 -40 15 -66 25 l-48 20 -30 -25 c-16 -14 -35 -23 -42 -20 -7 2
-26 -13 -42 -35 -17 -22 -34 -39 -40 -37 -5 1 -28 -10 -49 -26 -23 -17 -47
-26 -57 -23 -9 3 -20 1 -23 -4 -4 -6 -14 -7 -24 -4 -15 6 -15 5 -4 -10 8 -9
19 -15 25 -14 7 1 12 -5 12 -13 0 -8 5 -18 10 -22 6 -4 -1 -8 -14 -8 -19 0
-22 -4 -18 -21 7 -25 -12 -59 -31 -59 -9 0 -11 -7 -7 -20 4 -14 2 -20 -9 -20
-9 0 -23 -12 -32 -26 -12 -17 -19 -21 -24 -14 -8 13 -15 6 -37 -40 l-13 -25 6
25 c10 41 10 45 -6 41 -8 -3 -25 -5 -37 -5 -13 -1 -23 -6 -23 -12 0 -7 -10
-14 -22 -17 -21 -5 -21 -5 -5 7 27 20 20 25 -19 14 -20 -5 -38 -7 -42 -4 -3 3
2 6 11 6 10 0 17 4 17 9 0 5 -11 9 -25 9 -14 0 -25 -4 -25 -9 0 -5 -10 -9 -22
-9 -20 1 -21 2 -8 13 9 7 14 20 12 30 -4 19 -22 23 -22 5 0 -10 -2 -10 -8 -1
-5 8 -24 11 -50 9 -37 -3 -42 -1 -42 18 0 16 -4 13 -18 -14 -19 -35 -47 -55
-36 -26 3 9 1 16 -5 16 -6 0 -11 -4 -11 -10 0 -5 -11 -10 -25 -10 -14 0 -25 4
-25 9 0 5 9 7 20 4 11 -3 20 0 20 6 0 6 -4 11 -9 11 -13 0 -19 48 -8 59 16 16
27 13 27 -6 0 -15 2 -16 10 -3 8 12 11 11 16 -8 5 -18 9 -20 20 -11 8 6 14 18
14 25 0 8 6 14 13 14 8 0 7 3 -3 10 -9 5 -19 5 -26 -1 -7 -6 -26 -4 -54 6 -23
8 -57 15 -74 15 -30 1 -30 1 -9 13 l21 12 -22 28 c-15 18 -43 34 -85 47 -35
10 -86 36 -117 60 -31 23 -62 39 -70 36 -18 -7 -18 -26 0 -26 8 0 18 -5 21
-10 4 -6 1 -9 -6 -8 -15 4 -21 -13 -10 -31 6 -10 26 -14 58 -14 l48 1 -44 -11
c-37 -9 -49 -8 -78 8 -22 12 -37 15 -41 9 -4 -6 -18 -10 -32 -10 -91 0 -144
-5 -129 -14 20 -11 112 -21 221 -24 66 -1 80 -5 98 -24 11 -12 25 -22 30 -22
6 0 10 -4 10 -9 0 -5 -16 -5 -37 0 -57 13 -83 11 -83 -6 0 -18 -21 -20 -38 -3
-9 9 -15 9 -24 0 -9 -9 -7 -12 11 -12 12 0 20 -4 17 -9 -4 -5 7 -15 24 -23 16
-7 30 -19 30 -25 0 -17 -17 -17 -27 0 -4 8 -21 22 -38 33 -16 10 -33 23 -36
27 -4 5 -15 5 -25 -2 -11 -6 -13 -11 -7 -11 18 0 53 -32 47 -42 -9 -14 -21 -9
-27 12 -3 11 -12 20 -21 20 -23 0 -20 -27 4 -35 11 -3 20 -11 20 -16 0 -5 8
-9 18 -9 23 0 59 -26 50 -36 -4 -4 -14 -1 -23 6 -22 18 -26 9 -6 -16 21 -26
68 -39 87 -23 10 8 14 8 14 0 0 -6 -4 -11 -10 -11 -5 0 -7 -7 -3 -16 3 -8 12
-13 19 -10 22 8 17 -3 -18 -39 l-31 -34 -26 30 c-14 16 -31 29 -37 29 -7 0
-15 6 -17 13 -3 7 -6 5 -6 -5 -1 -10 -11 -22 -22 -29 -24 -12 -39 1 -39 35 0
16 -3 17 -12 8 -10 -10 -10 -17 0 -32 11 -17 7 -25 -33 -61 -25 -23 -45 -48
-45 -55 0 -8 -7 -14 -15 -14 -19 0 -19 7 1 27 11 11 12 18 4 23 -7 4 -8 14 -1
31 l10 24 7 -23 c6 -21 8 -22 25 -6 19 17 23 74 5 74 -13 0 -186 -181 -186
-195 0 -5 4 -16 9 -23 7 -11 12 -11 28 -2 13 9 38 10 76 6 47 -6 55 -10 49
-24 -4 -12 4 -9 30 10 l35 27 14 -26 c11 -21 19 -24 46 -20 37 6 36 7 23 -27
-5 -14 -6 -26 -1 -26 5 0 14 15 21 33 26 69 30 73 24 20 -3 -31 -1 -60 6 -73
11 -20 13 -20 36 -5 23 15 24 15 24 -9 0 -18 8 -27 29 -34 26 -9 33 -7 56 14
32 30 43 30 47 2 2 -19 8 -22 33 -20 17 2 34 8 40 13 15 15 25 10 25 -13 0
-19 2 -20 11 -8 8 11 12 12 16 3 3 -10 10 -9 26 2 23 15 43 15 65 1 9 -5 22 0
37 14 17 16 24 18 28 8 5 -11 7 -11 15 1 7 9 12 10 16 2 13 -20 33 -11 50 22
8 17 16 26 16 20 0 -7 5 -13 11 -13 6 0 9 7 5 15 -4 10 1 15 15 15 13 0 19 -6
17 -16 -4 -23 16 -28 35 -9 9 8 29 15 46 15 32 0 46 13 46 44 0 13 10 22 29
27 41 11 116 0 116 -17 0 -27 38 -7 58 31 6 11 12 15 12 9 0 -6 -9 -22 -19
-36 -13 -16 -17 -29 -11 -38 5 -8 12 -11 16 -8 3 4 20 -6 37 -22 35 -32 44
-33 27 -1 -11 21 3 31 15 11 3 -6 15 -10 26 -10 10 0 19 -4 19 -9 0 -5 -9 -7
-20 -4 -14 4 -20 0 -20 -12 0 -12 -6 -16 -20 -12 -11 3 -20 1 -20 -4 0 -5 6
-9 14 -9 8 0 21 -9 30 -21 10 -15 20 -19 35 -14 19 6 26 -2 19 -22 -2 -4 -14
-7 -28 -7 -17 -1 -25 -6 -24 -18 2 -25 -2 -23 -41 17 -29 29 -35 42 -35 78 0
40 -3 44 -33 55 -40 14 -57 15 -57 3 0 -5 10 -11 23 -13 20 -4 14 -12 -51 -76
-40 -40 -77 -72 -83 -72 -6 0 -7 5 -4 10 8 14 -8 13 -22 -1 -6 -6 -9 -18 -6
-25 3 -8 -1 -14 -11 -14 -9 0 -25 -9 -36 -20 -11 -11 -23 -20 -26 -20 -3 0
-45 -40 -93 -90 -49 -49 -94 -90 -101 -90 -7 0 -10 -3 -7 -6 3 -4 -3 -18 -13
-32 -21 -26 -27 -47 -10 -37 12 8 93 -29 84 -38 -4 -4 -3 -7 3 -7 6 0 13 7 17
15 3 8 17 20 31 25 15 6 25 17 25 30 0 11 4 20 9 20 5 0 12 9 16 19 7 23 -14
61 -32 61 -18 0 -16 19 2 27 10 3 27 -6 45 -27 l28 -32 -5 41 c-5 33 -3 41 11
41 10 0 17 -9 18 -27 1 -16 2 -35 3 -45 0 -9 7 -28 15 -42 19 -37 -1 -58 -30
-31 -15 14 -17 21 -9 32 7 7 9 16 6 19 -3 3 -12 -7 -20 -23 -14 -26 -13 -30 4
-52 10 -13 19 -27 19 -32 0 -14 -26 -10 -40 6 -16 20 -44 19 -61 -2 -12 -14
-12 -16 1 -11 20 6 43 -18 46 -50 l3 -25 -16 22 c-8 12 -21 20 -29 17 -8 -3
-11 0 -7 10 3 9 -1 14 -12 14 -9 0 -13 -4 -10 -10 3 -5 0 -10 -8 -10 -21 0
-26 -21 -11 -49 11 -21 13 -22 17 -5 4 16 5 16 6 -3 1 -26 59 -73 89 -73 14 0
31 14 49 42 26 39 28 40 31 17 2 -13 15 -33 29 -44 17 -14 24 -28 21 -45 -3
-24 -4 -24 -18 8 -18 39 -41 38 -51 -1 -6 -23 -2 -34 23 -62 16 -19 36 -35 43
-35 7 0 15 -4 17 -10 6 -17 68 41 83 77 8 20 15 37 15 39 0 2 -16 10 -35 18
-19 8 -35 20 -35 25 0 14 1 14 40 -5 18 -10 46 -18 62 -20 39 -5 68 -22 68
-39 0 -19 -30 -19 -56 0 -25 17 -34 11 -34 -22 0 -19 5 -23 30 -23 19 0 33 -7
40 -20 6 -12 21 -20 36 -20 14 0 22 -4 19 -10 -11 -18 -45 -11 -81 16 -40 31
-49 27 -40 -19 7 -36 36 -57 81 -57 13 0 27 -5 30 -11 11 -16 42 17 49 52 3
17 13 37 21 46 14 13 18 14 28 1 7 -8 31 -20 55 -27 23 -6 42 -17 42 -23 0 -7
4 -7 13 1 15 12 27 5 27 -16 0 -17 -39 -17 -84 2 -30 13 -36 13 -36 1 0 -7 8
-24 18 -36 16 -19 31 -24 98 -28 43 -2 82 -9 86 -15 4 -7 11 -7 20 -1 7 5 27
11 43 12 36 3 95 32 95 47 0 6 9 18 19 27 14 12 22 13 31 5 7 -7 0 6 -15 28
-25 38 -25 40 -8 53 11 8 34 12 58 9 28 -3 45 1 55 11 10 11 15 12 18 3 6 -18
-45 -64 -64 -57 -21 8 -34 -1 -27 -19 7 -20 77 -19 108 1 30 20 55 91 36 103
-10 6 -9 12 3 24 9 8 21 17 28 20 9 3 7 9 -7 20 -29 22 -75 65 -75 71 0 3 7 3
15 0 10 -4 15 0 15 10 0 11 -7 16 -17 14 -13 -2 -19 5 -21 25 -2 16 -10 31
-18 34 -8 3 -14 18 -14 33 0 45 -17 44 -24 -1 -4 -22 -11 -37 -16 -34 -6 3
-10 -3 -10 -15 0 -19 1 -20 16 -6 22 23 34 20 34 -9 0 -20 -9 -30 -45 -47 -45
-22 -58 -38 -30 -38 8 0 15 4 15 10 0 5 6 7 13 4 8 -3 20 2 27 11 15 19 40 20
40 2 0 -29 -57 -66 -106 -69 -54 -3 -66 10 -35 39 21 19 21 19 -39 17 -54 -3
-60 -1 -60 17 0 10 7 19 15 19 8 0 15 -4 15 -10 0 -6 10 -5 25 2 14 6 25 18
25 26 0 14 -22 14 -70 1 -9 -3 -16 5 -18 20 -3 21 -1 23 21 17 13 -3 27 -3 30
1 4 3 22 6 40 7 33 1 33 1 31 -42 -1 -40 0 -42 15 -27 13 13 16 42 18 150 1
75 -2 137 -8 140 -5 4 -9 19 -9 35 0 16 -5 32 -11 35 -7 5 -5 13 7 26 21 24
29 148 9 155 -25 10 -26 34 -2 44 18 7 19 9 4 9 -14 1 -17 6 -12 21 3 11 2 20
-3 20 -21 0 -22 33 -2 47 11 8 20 22 20 31 0 15 2 15 10 2 8 -13 10 -12 10 3
0 9 -4 17 -9 17 -13 0 -41 59 -31 65 5 3 10 -3 12 -12 3 -13 9 -9 20 17 l16
35 1 -33 c1 -25 6 -35 21 -39 11 -3 20 -12 20 -19 0 -10 15 -14 56 -14 65 0
87 17 104 81 10 37 11 38 43 27 l32 -12 -32 -8 c-27 -7 -33 -13 -33 -36 0 -34
29 -55 52 -38 8 6 19 26 23 44 3 18 15 37 25 42 31 17 37 11 10 -10 -20 -15
-23 -21 -12 -32 18 -18 46 2 50 37 2 16 10 38 18 51 12 18 12 23 2 27 -10 4
-10 8 2 16 25 18 52 14 46 -6 -3 -10 -8 -41 -11 -69 -5 -46 -4 -52 14 -57 24
-6 29 12 36 122 2 41 7 76 10 79 16 16 29 -25 29 -92 1 -75 13 -105 36 -91 8
5 11 35 10 89 -3 113 -2 126 14 126 18 0 28 -39 32 -129 3 -82 16 -108 40 -76
24 31 9 145 -27 205 -23 38 -30 63 -19 70 14 8 -7 27 -32 29 -10 0 -24 2 -30
3 -7 0 -29 -2 -48 -6 l-35 -7 35 16 c33 16 34 17 16 31 -11 8 -16 14 -11 14 5
0 18 -9 30 -20 29 -27 55 -17 55 22 0 19 4 28 13 25 6 -2 11 -10 9 -16 -1 -7
9 -27 24 -46 17 -23 24 -41 19 -55 -3 -11 -2 -20 3 -20 10 0 33 -116 26 -135
-3 -7 -1 -16 5 -20 6 -3 11 -14 11 -24 0 -22 41 -36 52 -18 11 18 -2 96 -25
150 -16 39 -18 50 -7 57 18 11 42 1 36 -16 -3 -7 2 -18 10 -25 8 -7 12 -19 10
-26 -3 -8 1 -27 9 -43 8 -16 15 -40 15 -55 0 -14 5 -25 10 -25 6 0 10 6 10 14
0 9 8 12 25 8 22 -4 25 -1 25 27 0 18 -15 65 -34 106 -28 61 -31 75 -19 79 22
9 23 8 23 -24 0 -21 4 -28 14 -24 10 4 13 0 10 -13 -3 -11 2 -25 10 -32 9 -8
16 -21 16 -31 0 -10 9 -28 21 -41 l21 -24 -5 23 c-4 19 -1 22 22 20 39 -3 52
9 45 40 -4 23 -3 24 6 10 16 -26 50 -24 43 2 -4 14 2 23 21 31 14 7 26 18 26
26 0 7 10 13 23 13 30 1 65 73 47 95 -16 19 10 31 37 17 19 -10 33 -8 70 10
26 13 21 28 -10 28 -18 0 -16 4 16 25 36 25 48 45 27 45 -12 0 -13 10 0 30 8
12 11 12 28 -3 19 -18 45 -14 105 13 23 11 34 34 25 56 -2 3 14 12 34 19 21 7
58 28 82 46 34 26 44 39 40 55 -6 23 10 40 41 46 11 1 25 10 32 18 7 8 13 11
13 6 0 -5 16 12 36 38 19 25 32 51 29 56 -3 6 -1 10 4 10 6 0 11 -8 12 -17 0
-11 3 -13 6 -5 2 6 9 10 14 6 5 -3 9 1 10 8 0 7 5 4 10 -7 7 -16 8 -12 6 17
-2 30 0 35 11 26 16 -14 34 6 25 29 -6 15 -19 17 -28 3 -3 -5 -11 -10 -17 -10
-7 0 1 13 16 29 15 16 28 33 27 38 0 4 3 19 6 33 6 23 7 23 14 5 7 -20 8 -20
9 0 2 11 2 23 1 28 0 4 3 7 8 7 14 0 21 44 9 52 -9 5 -7 12 6 26 12 14 14 22
6 27 -8 5 -8 11 1 21 13 16 13 16 -23 18 -16 1 -28 -2 -28 -8 0 -5 -3 -7 -6
-3 -6 5 -44 -28 -44 -39 0 -3 -9 -19 -21 -35 -11 -16 -17 -29 -12 -29 4 0 -5
-11 -22 -25 -16 -13 -27 -24 -24 -25 3 0 26 16 50 35 53 42 73 46 36 7 -16
-17 -25 -35 -22 -44 4 -10 -6 -20 -32 -32 -48 -21 -59 -20 -55 6 4 21 2 21
-32 -6 -45 -34 -47 -26 -3 14 24 22 28 29 15 30 -10 0 -18 7 -18 15 0 19 -14
19 -29 1 -17 -20 -54 -28 -47 -10 3 9 -1 14 -14 14 -21 0 -28 -26 -8 -32 6 -2
-7 -17 -29 -34 -24 -17 -38 -35 -36 -44 4 -12 3 -12 -5 -2 -8 11 -13 12 -30 1
-20 -13 -19 -37 2 -51 16 -10 -9 -32 -28 -25 -9 4 -12 13 -9 28 5 18 3 21 -11
16 -10 -4 -22 -7 -27 -7 -12 0 1 -33 19 -47 14 -11 11 -13 -15 -13 -26 0 -30
3 -26 20 4 16 2 19 -11 14 -10 -4 -15 -13 -12 -20 3 -8 9 -21 12 -29 5 -11 -1
-15 -26 -15 -18 0 -29 -4 -25 -10 4 -6 -6 -10 -21 -10 -22 0 -25 -3 -16 -12 7
-7 12 -20 12 -31 0 -15 -6 -18 -31 -15 -17 2 -30 -1 -30 -7 1 -5 11 -9 22 -7
17 3 19 -1 13 -25 -10 -40 -12 -42 -34 -36 -12 3 -29 -2 -40 -12 -25 -22 -39
-12 -18 12 9 10 19 29 22 43 7 24 7 25 -9 5 -27 -32 -47 -75 -35 -75 5 0 9 -5
7 -11 -4 -21 24 -21 30 0 8 30 33 27 33 -4 0 -14 6 -25 13 -25 7 0 5 -5 -5
-10 -10 -7 -25 -7 -41 -1 -14 5 -28 7 -32 3 -4 -4 -25 -7 -47 -8 -23 0 -43 -6
-48 -14 -12 -20 -5 -24 18 -11 26 14 36 -7 16 -34 -12 -16 -17 -17 -38 -6 -13
8 -30 10 -36 6 -7 -4 -16 -2 -20 5 -4 7 -13 9 -20 5 -9 -6 -8 -10 4 -17 15 -9
16 -12 3 -26 -8 -10 -17 -34 -21 -54 -5 -29 -12 -38 -26 -38 -23 0 -26 15 -7
27 22 13 25 37 7 56 -15 15 -18 16 -23 3 -3 -8 1 -17 10 -20 13 -5 11 -11 -12
-30 -18 -15 -26 -30 -22 -40 5 -13 3 -14 -12 -4 -12 7 -16 19 -13 36 3 17 1
23 -6 18 -6 -4 -8 -14 -5 -22 5 -13 1 -15 -15 -9 -13 4 -22 2 -22 -4 0 -14
-21 -14 -55 -1 -21 8 -24 12 -13 24 7 7 18 12 24 9 7 -2 15 0 19 6 3 6 17 11
30 11 52 0 124 98 91 123 -6 5 0 5 13 2 19 -6 23 -4 18 8 -3 9 -1 18 6 21 9 3
8 8 -3 15 -13 9 -13 11 1 11 19 0 42 24 32 33 -3 4 -15 -1 -26 -10 -11 -10
-17 -12 -13 -5 4 7 1 12 -9 12 -9 0 -19 -9 -22 -20 -3 -11 -9 -20 -15 -20 -5
0 -4 8 1 19 7 13 6 24 -4 37 -14 18 -14 18 -15 -7 0 -14 -7 -34 -15 -45 -15
-18 -15 -18 -9 9 5 21 2 27 -10 27 -9 0 -16 -4 -16 -9 0 -5 -9 -11 -21 -14
-12 -3 -19 -9 -16 -14 3 -4 -11 -9 -31 -11 -20 -1 -40 -8 -44 -15 -5 -7 -8 0
-8 19 0 26 6 33 48 53 26 13 74 31 107 41 59 17 133 47 188 77 16 8 37 13 48
10 15 -4 19 -2 15 10 -5 12 0 13 24 8 29 -6 44 9 18 17 -6 2 27 26 75 52 148
80 354 243 406 320 66 98 65 94 65 190 0 50 -5 100 -11 110 -8 15 -11 -4 -11
-76z m-2291 -1805 c-5 -10 -30 -40 -55 -67 -25 -27 -46 -53 -46 -57 0 -5 -7
-9 -15 -9 -10 0 -15 -10 -15 -32 l-1 -33 -19 24 -20 23 0 -34 c0 -37 23 -78
45 -78 7 0 18 -13 23 -29 6 -17 24 -37 40 -45 27 -14 31 -14 36 1 4 9 1 20 -6
24 -15 9 -11 14 18 23 15 5 24 0 34 -20 13 -23 13 -27 -4 -39 -14 -11 -15 -17
-7 -34 7 -13 8 -22 1 -26 -16 -10 -50 5 -50 21 0 8 -6 14 -14 14 -8 0 -21 8
-28 18 -17 21 -58 45 -66 38 -3 -4 0 -12 6 -18 7 -7 12 -20 12 -29 0 -10 13
-21 30 -28 17 -5 30 -15 30 -20 0 -6 6 -8 13 -5 8 3 28 -13 47 -35 29 -33 36
-37 52 -27 14 8 20 8 26 -1 4 -6 23 -11 42 -10 29 2 36 -2 38 -20 4 -24 -7
-30 -24 -13 -5 5 -32 11 -59 14 -27 2 -51 9 -53 15 -2 6 -12 11 -21 11 -10 0
-26 9 -36 20 -10 11 -24 20 -31 20 -7 0 -34 20 -60 44 -48 45 -49 51 -17 94
16 23 16 24 -3 20 -15 -2 -19 3 -19 25 1 15 -2 27 -6 27 -4 0 -9 14 -12 30 -6
29 -29 40 -42 20 -3 -6 1 -7 10 -4 13 5 15 1 11 -20 -3 -14 0 -26 5 -26 5 0 9
-9 9 -21 0 -11 4 -29 10 -39 5 -10 7 -25 4 -34 -10 -25 -32 -7 -38 32 -3 20
-8 46 -10 57 -2 11 -5 24 -5 29 -1 4 -8 6 -16 3 -33 -13 -22 13 23 51 26 22
61 52 77 66 17 14 38 26 48 26 10 0 15 5 12 11 -4 6 2 13 14 16 12 3 21 9 21
14 0 7 43 31 68 38 1 1 -2 -7 -7 -16z m-183 -403 c12 -12 22 -27 22 -35 0 -8
7 -15 17 -15 9 0 31 -11 49 -25 18 -14 37 -25 42 -25 5 0 17 -9 27 -20 12 -13
25 -18 37 -14 12 3 27 -1 38 -11 13 -12 27 -15 48 -10 21 4 34 1 46 -10 10
-11 29 -16 54 -14 46 4 97 -25 72 -41 -18 -12 -69 -3 -90 15 -8 8 -44 17 -80
21 -58 6 -107 24 -200 75 -36 20 -120 101 -120 116 0 19 13 16 38 -7z"/>
<path d="M818 2774 c22 -42 296 -230 375 -258 16 -5 17 -8 3 -21 -18 -19 -26
-19 -26 -1 0 18 -42 29 -52 13 -6 -9 -8 -9 -8 1 0 7 -21 22 -47 34 -27 12 -52
24 -56 26 -5 2 -1 -9 9 -24 l18 -29 -24 20 c-14 11 -30 26 -36 34 -6 8 -16 11
-22 7 -6 -4 -23 1 -37 10 -14 9 -25 14 -25 11 0 -3 -26 10 -57 29 -32 19 -62
33 -67 31 -21 -7 -14 -23 17 -37 17 -8 32 -20 32 -27 0 -6 4 -15 9 -20 5 -5 6
-2 1 6 -9 16 16 10 95 -26 84 -38 241 -95 278 -100 31 -5 39 4 33 40 0 4 6 7
14 7 8 0 15 5 15 10 0 6 -11 10 -24 10 -13 0 -27 7 -30 16 -3 9 -13 14 -21 10
-8 -3 -18 0 -22 7 -5 7 -26 20 -48 30 -55 25 -144 83 -213 137 -103 82 -97 78
-84 54z"/>
<path d="M818 2483 c-30 -7 -26 -12 52 -67 19 -14 52 -32 74 -41 l38 -16 -6
25 c-6 23 -3 26 20 26 15 0 58 -9 96 -21 38 -11 77 -19 86 -17 9 1 23 -1 30
-5 21 -14 53 3 50 26 -3 18 -15 23 -103 38 -55 9 -138 24 -185 33 -110 21
-131 24 -152 19z"/>
<path d="M820 2422 c0 -5 7 -15 15 -22 8 -7 15 -25 15 -41 0 -34 16 -47 23
-19 3 11 13 20 22 20 14 0 15 -3 5 -14 -10 -13 0 -21 60 -51 39 -20 73 -42 76
-50 6 -15 68 -55 86 -55 5 0 8 6 5 14 -4 10 3 11 39 5 24 -5 77 -8 118 -8 66
0 76 3 81 20 6 18 9 19 23 5 21 -18 52 -4 52 25 0 22 -4 22 -185 4 -33 -3 -91
-1 -130 5 -38 6 -76 12 -82 12 -7 1 -13 8 -13 16 0 12 9 13 48 8 26 -4 93 -10
150 -12 86 -4 102 -2 102 11 0 8 5 15 11 15 5 0 8 -4 4 -9 -3 -5 4 -13 16 -16
25 -8 26 -7 31 24 3 27 9 27 -280 34 l-153 5 -62 37 c-80 49 -77 48 -77 37z"/>
<path d="M1597 2213 c-4 -3 -19 -7 -34 -9 -16 -1 -59 -9 -98 -18 -71 -15 -148
-24 -220 -26 l-40 0 24 -19 c18 -14 20 -20 10 -23 -18 -6 62 -48 91 -48 13 0
20 7 20 19 0 15 11 20 58 28 50 7 57 11 55 30 -2 16 2 20 17 16 11 -3 17 -9
14 -14 -3 -5 5 -9 16 -9 13 0 24 8 27 20 6 23 23 26 41 8 10 -10 14 -8 19 11
4 17 11 22 28 18 16 -3 22 0 18 10 -5 14 -35 18 -46 6z"/>
<path d="M1653 2145 c-21 -15 -50 -25 -181 -66 -79 -24 -90 -32 -72 -54 7 -8
9 -15 4 -16 -16 -1 61 -27 83 -28 16 -1 24 6 29 23 4 18 17 27 51 36 24 7 50
21 56 32 7 10 18 18 25 18 7 0 10 -5 6 -11 -4 -8 0 -8 15 0 21 12 28 45 13 68
-6 10 -13 9 -29 -2z"/>
<path d="M3978 1900 c-2 -7 -20 -12 -41 -12 -20 0 -37 -4 -37 -9 0 -5 15 -9
34 -9 47 0 66 -9 66 -31 0 -10 7 -19 15 -19 8 0 15 7 15 15 0 8 5 15 10 15 6
0 8 -10 4 -24 -7 -29 9 -41 36 -26 18 9 20 8 20 -15 0 -17 5 -25 18 -25 24 0
42 19 42 46 0 23 15 38 37 39 7 0 13 3 13 8 0 4 0 12 0 17 0 6 -8 5 -20 -2
-15 -10 -26 -10 -53 0 -18 7 -58 12 -88 13 -39 0 -49 3 -34 9 11 5 15 9 8 9
-6 1 -18 4 -26 7 -8 3 -17 0 -19 -6z"/>
<path d="M3910 1735 c-7 -14 -18 -25 -24 -25 -6 -1 18 -13 54 -29 59 -25 65
-30 62 -55 -3 -24 -1 -27 25 -24 24 3 28 0 25 -19 -4 -27 8 -29 48 -8 33 17
54 50 46 71 -3 8 -27 24 -53 35 -35 15 -44 22 -33 29 8 5 18 6 22 4 4 -3 8 0
8 6 0 7 -14 10 -35 9 -19 -2 -40 2 -47 9 -20 20 -35 14 -47 -19 -6 -18 -16
-29 -23 -26 -14 5 -12 40 3 45 10 4 2 22 -10 22 -4 0 -14 -11 -21 -25z"/>
<path d="M3775 1630 c-4 -17 -13 -30 -21 -30 -9 0 -12 -4 -9 -10 11 -18 31
-11 32 11 2 28 8 32 33 24 18 -6 20 -12 15 -33 -4 -15 -11 -29 -16 -30 -12 -5
-42 -62 -32 -62 14 1 58 28 58 37 2 24 18 54 28 50 22 -7 18 -44 -7 -75 -23
-26 -35 -62 -21 -62 22 0 55 27 55 45 0 13 9 33 20 46 l19 24 1 -29 c0 -16
-14 -51 -31 -78 -17 -27 -29 -51 -26 -55 4 -3 23 1 44 8 33 13 37 19 38 51 2
34 24 70 42 68 4 -1 15 -7 23 -13 13 -11 13 -10 1 6 -9 11 -22 16 -33 14 -12
-4 -26 4 -40 23 -12 16 -25 27 -30 24 -4 -3 -20 4 -34 15 -15 12 -31 21 -35
21 -5 0 -18 9 -29 20 -27 27 -37 25 -45 -10z"/>
<path d="M3696 1419 c-38 -37 -39 -39 -15 -39 13 0 30 9 37 20 14 23 52 27 52
6 0 -8 -18 -29 -40 -47 -48 -40 -50 -49 -10 -49 23 0 30 4 30 20 0 10 9 24 19
30 27 14 31 13 31 -10 0 -19 -90 -100 -112 -100 -6 0 -6 -6 2 -15 8 -9 17 -11
28 -5 10 5 29 11 43 14 18 4 29 14 33 31 4 16 13 25 26 25 12 0 20 7 20 16 0
14 3 14 15 4 8 -7 15 -19 15 -28 0 -8 3 -12 7 -9 3 4 12 2 20 -4 10 -9 13 -8
13 4 0 8 -7 20 -15 27 -8 7 -15 18 -15 26 0 11 -30 27 -55 29 -5 0 -12 11 -13
24 -2 13 -12 25 -22 28 -10 3 -20 13 -23 24 -7 27 -27 21 -71 -22z"/>
</g>
</svg>
